# xmcd CD database file
#
# Track frame offsets:
#	150
#	22736
#	54116
#	89151
#	119807
#	148323
#	190745
#	219606
#	244683
#
# Disc length: 3421 seconds
#
# Revision: 0
# Processed by: cddbd v1.5.2PL0 Copyright (c) Steve Scherf et al.
# Submitted via: CDex 1.51
#
DISCID=820d5b09
DTITLE=Tobias Becker Bigband -  Livestream
DYEAR=2012
DGENRE=Jazz
TTITLE0=Livestream Suite - I.Movement
TTITLE1=Livestream Suite - II.Movement
TTITLE2=Livestream Suite - III.Movement
TTITLE3=Livestream Suite - IV.Movement
TTITLE4=I'll Be Seeing You
TTITLE5=Meerklang
TTITLE6=Parker51
TTITLE7=Independent Blue
TTITLE8=Love Me Or Leave Me
EXTD=YEAR: 2012
EXTT0=
EXTT1=
EXTT2=
EXTT3=
EXTT4=
EXTT5=
EXTT6=
EXTT7=
EXTT8=
PLAYORDER=
